<svg xmlns="http://www.w3.org/2000/svg" xmlns:xlink="http://www.w3.org/1999/xlink" version="1.1" x="0px" y="0px" viewBox="11.5 11.5 489.1 489.1" style="enable-background:new 11.5 11.4 489.1 489.1;" xml:space="preserve"><g><g><g><g><path d="M494.5,500.6H17.5c-3.3,0-6-2.7-6-6v-58.2c0-3.3,2.7-6,6-6c37.3,0,67.7-30.4,67.7-67.7c0-37.3-30.4-67.7-67.7-67.7      c-3.3,0-6-2.7-6-6V17.4c0-3.3,2.7-6,6-6h67.9c2.2,0,4.3,1.3,5.3,3.2s0.9,4.4-0.4,6.2c-8.2,11.5-12.5,25-12.5,39.2      c0,37.3,30.4,67.7,67.7,67.7c37.3,0,67.7-30.4,67.7-67.7c0-14.1-4.3-27.7-12.5-39.2c-1.3-1.8-1.5-4.2-0.4-6.2      c1-2,3.1-3.2,5.3-3.2h289c3.3,0,6,2.7,6,6v279.5c0,1.7-0.7,3.3-2,4.5c-1.3,1.1-2.9,1.7-4.6,1.5c-2.2-0.2-4.3-0.3-6.5-0.3      c-37.3,0-67.7,30.4-67.7,67.7c0,37.3,30.4,67.7,67.7,67.7c2.2,0,4.3-0.1,6.5-0.3c1.7-0.2,3.4,0.4,4.6,1.5c1.3,1.1,2,2.8,2,4.5      v50.9C500.5,497.9,497.9,500.6,494.5,500.6z M23.5,488.6h465.1V450c-0.4,0-0.7,0-1.1,0c-43.9,0-79.7-35.7-79.7-79.7      c0-43.9,35.7-79.7,79.7-79.7c0.4,0,0.7,0,1.1,0V23.4H216.2c5.9,11.3,8.9,23.8,8.9,36.7c0,44-35.7,79.7-79.7,79.7      c-44,0-79.7-35.8-79.7-79.7c0-12.9,3.1-25.4,8.9-36.7H23.5v259.8c41.2,3.1,73.7,37.5,73.7,79.5c0,41.9-32.5,76.4-73.7,79.5      V488.6z"/></g><g><path d="M327.1,163.7c-22.9,0-41.5-18.6-41.5-41.5c0-11.1,4.3-21.5,12.2-29.4c7.8-7.8,18.3-12.2,29.4-12.2      c22.9,0,41.5,18.6,41.5,41.5C368.7,145.1,350,163.7,327.1,163.7z M327.1,92.7c-7.9,0-15.3,3.1-20.9,8.6      c-5.6,5.6-8.6,13-8.6,20.9c0,16.3,13.2,29.5,29.5,29.5c16.3,0,29.5-13.2,29.5-29.5C356.7,105.9,343.4,92.7,327.1,92.7z"/></g><g><path d="M305.5,378.2c-22.9,0-41.5-18.6-41.5-41.6c0-11.1,4.3-21.5,12.2-29.4c7.8-7.8,18.3-12.2,29.4-12.2      c22.9,0,41.5,18.6,41.5,41.5C347,359.6,328.4,378.2,305.5,378.2z M305.5,307.1c-7.9,0-15.3,3.1-20.9,8.7      c-5.6,5.6-8.7,13-8.7,20.9c0,16.3,13.2,29.6,29.5,29.6c16.3,0,29.5-13.3,29.5-29.6C335,320.4,321.8,307.1,305.5,307.1z"/></g><g><path d="M139.5,260.1c-22.9,0-41.5-18.6-41.5-41.5c0-22.9,18.6-41.5,41.5-41.5c22.9,0,41.6,18.6,41.6,41.5      C181.1,241.5,162.4,260.1,139.5,260.1z M139.5,189c-16.3,0-29.5,13.2-29.5,29.5c0,16.3,13.2,29.5,29.5,29.5      c16.3,0,29.6-13.2,29.6-29.5C169.1,202.3,155.8,189,139.5,189z"/></g><g><path d="M153.2,441c-22.9,0-41.5-18.6-41.5-41.5c0-22.9,18.6-41.5,41.5-41.5c22.9,0,41.6,18.6,41.6,41.5      C194.8,422.4,176.1,441,153.2,441z M153.2,370c-16.3,0-29.5,13.2-29.5,29.5c0,16.3,13.2,29.5,29.5,29.5      c16.3,0,29.6-13.2,29.6-29.5C182.8,383.2,169.5,370,153.2,370z"/></g></g></g></g></svg>